
<svg xmlns="http://www.w3.org/2000/svg" width="24" height="24">
    <g data-name="Group 12169">
        <g data-name="Group 12168">
            <path data-name="Rectangle 2237" style="fill:none" d="M0 0h24v24H0z"/>
        </g>
    </g>
    <path data-name="Path 49716" d="M731 253.956a12 12 0 1 0 12 12 12.013 12.013 0 0 0-12-12zm4.714 15.294a1 1 0 0 1-1.415 1.414l-3.293-3.293-3.293 3.293a1 1 0 0 1-1.414-1.414l3.293-3.293-3.293-3.293a1 1 0 1 1 1.414-1.415l3.293 3.294 3.293-3.294a1 1 0 1 1 1.415 1.415l-3.294 3.293z" transform="translate(-719.002 -253.956)" style="fill:#3e3e45"/>
</svg>
