
<svg xmlns="http://www.w3.org/2000/svg" width="16" height="16">
    <g data-name="Group 11496">
        <g data-name="Group 11495">
            <path data-name="Rectangle 2168" style="fill:none" d="M0 0h16v16H0z"/>
        </g>
    </g>
    <g data-name="Group 11612" style="fill:#85858c">
        <path data-name="Path 49629" d="M10.663 5.493 7.237 8.92 5.395 7.078a.8.8 0 1 0-1.131 1.131l2.408 2.408a.8.8 0 0 0 1.131 0l3.992-3.993a.8.8 0 0 0-1.132-1.131z"/>
        <path data-name="Path 49630" d="M8 0a8 8 0 1 0 8 8 8.008 8.008 0 0 0-8-8zm0 14.4A6.4 6.4 0 1 1 14.4 8 6.407 6.407 0 0 1 8 14.4z"/>
    </g>
</svg>
