
<svg xmlns="http://www.w3.org/2000/svg" width="24" height="24">
    <g data-name="Group 12356">
        <path data-name="Rectangle 2329" style="fill:none" d="M0 0h24v24H0z"/>
    </g>
    <g data-name="Group 12359">
        <path data-name="Path 49741" d="M219.922 407.119a.8.8 0 0 1-.382-.1l-6.54-3.548-6.54 3.551a.8.8 0 0 1-1.171-.834l1.255-7.555-5.311-5.347a.8.8 0 0 1 .448-1.354l7.32-1.1 3.277-6.857a.833.833 0 0 1 1.444 0l3.278 6.857 7.32 1.1a.8.8 0 0 1 .448 1.354l-5.311 5.347 1.255 7.555a.8.8 0 0 1-.789.931zM213 401.761a.808.808 0 0 1 .382.1l5.482 2.978-1.053-6.345a.8.8 0 0 1 .222-.694l4.486-4.517-6.177-.927a.8.8 0 0 1-.6-.447L213 386.175l-2.739 5.73a.8.8 0 0 1-.6.447l-6.177.927 4.486 4.517a.8.8 0 0 1 .222.694l-1.053 6.345 5.482-2.978a.808.808 0 0 1 .379-.096z" style="fill:#85858c" transform="translate(-201 -383.338)"/>
    </g>
</svg>
