
<svg xmlns="http://www.w3.org/2000/svg" width="16" height="16">
    <g data-name="Group 11527">
        <g data-name="Group 11526">
            <path data-name="Rectangle 2183" transform="rotate(-90 8 8)" style="fill:none" d="M0 0h16v16H0z"/>
        </g>
    </g>
    <path data-name="Path 49595" d="m252.758 341.24-7.2-7a.8.8 0 0 0-.1-.066.747.747 0 0 0-.152-.1.8.8 0 0 0-.608 0 .812.812 0 0 0-.151.1.822.822 0 0 0-.1.067l-7.2 7a.8.8 0 1 0 1.116 1.146l5.842-5.679v12.506a.8.8 0 0 0 1.6 0v-12.507l5.843 5.679a.8.8 0 0 0 1.131-.015.8.8 0 0 0-.021-1.131z" style="fill:#f5f5f7" transform="rotate(-90 -40.507 293.507)"/>
</svg>
