
<svg xmlns="http://www.w3.org/2000/svg" width="24" height="24">
    <g data-name="그룹 6146">
        <g data-name="그룹 6145">
            <path data-name="사각형 1757" style="fill:none" d="M0 0h24v24H0z"/>
        </g>
    </g>
    <g data-name="그룹 6147" style="fill:#fff">
        <path data-name="패스 32870" d="M12 16.8a4.8 4.8 0 1 1 4.8-4.8 4.806 4.806 0 0 1-4.8 4.8zm0-8a3.2 3.2 0 1 0 3.2 3.2A3.2 3.2 0 0 0 12 8.8z"/>
    </g>
    <g data-name="그룹 6148" style="fill:#fff">
        <path data-name="패스 32871" d="M12 24a5.671 5.671 0 0 1-2.419-.543.8.8 0 0 1-.444-.567l-.515-2.588a.707.707 0 0 0-.339-.473l-1.2-.7a.7.7 0 0 0-.578-.057l-2.5.848a.793.793 0 0 1-.712-.1 5.664 5.664 0 0 1-2.421-4.191.8.8 0 0 1 .27-.668l2.009-1.763a.7.7 0 0 0 .24-.528v-1.347a.7.7 0 0 0-.24-.529L1.142 9.032a.8.8 0 0 1-.27-.669 5.668 5.668 0 0 1 2.42-4.191.791.791 0 0 1 .713-.1l2.551.866a.7.7 0 0 0 .578-.058l1.142-.66a.7.7 0 0 0 .34-.473l.525-2.64a.8.8 0 0 1 .444-.568 5.662 5.662 0 0 1 4.839 0 .8.8 0 0 1 .443.568l.526 2.641a.707.707 0 0 0 .339.473l1.142.659a.7.7 0 0 0 .579.057l2.549-.865a.8.8 0 0 1 .715.1 5.667 5.667 0 0 1 2.419 4.191.8.8 0 0 1-.269.669l-2.01 1.762a.7.7 0 0 0-.24.529v1.347a.7.7 0 0 0 .24.528l2.01 1.763a.8.8 0 0 1 .269.668 5.663 5.663 0 0 1-2.42 4.191.8.8 0 0 1-.713.1l-2.5-.849a.712.712 0 0 0-.579.058l-1.2.7a.705.705 0 0 0-.338.471l-.516 2.59a.8.8 0 0 1-.443.567A5.678 5.678 0 0 1 12 24zm-1.378-1.841a4.064 4.064 0 0 0 2.756 0l.432-2.17a2.3 2.3 0 0 1 1.108-1.545l1.2-.7a2.311 2.311 0 0 1 1.892-.186l2.1.711a4.062 4.062 0 0 0 1.378-2.386L19.8 14.401a2.3 2.3 0 0 1-.785-1.731v-1.347a2.3 2.3 0 0 1 .785-1.732l1.688-1.481a4.068 4.068 0 0 0-1.378-2.387l-2.146.73a2.3 2.3 0 0 1-1.893-.187l-1.144-.659A2.3 2.3 0 0 1 13.82 4.06l-.442-2.222a4.064 4.064 0 0 0-2.756 0l-.442 2.223a2.3 2.3 0 0 1-1.107 1.545l-1.143.66a2.3 2.3 0 0 1-1.893.187l-2.146-.729a4.072 4.072 0 0 0-1.378 2.387l1.689 1.481a2.3 2.3 0 0 1 .785 1.732v1.347a2.3 2.3 0 0 1-.786 1.732l-1.688 1.481a4.067 4.067 0 0 0 1.378 2.386l2.095-.711a2.3 2.3 0 0 1 1.892.186l1.206.7a2.3 2.3 0 0 1 1.107 1.546zm9.7-11.963z"/>
    </g>
</svg>
